<svg width="100" height="100" viewBox="0 0 100 100" fill="none" xmlns="http://www.w3.org/2000/svg">
<path d="M60.6 77.5C60.6 68.4 68 61 77.1 61C79.3 61 81.4 61.4 83.3 62.2V27.9C83.3 16.9 74.3 7.89999 63.3 7.89999H28.3C17.3 7.89999 8.3 16.9 8.3 27.9V62.9C8.3 73.9 17.3 82.9 28.3 82.9H61.5C60.9 81.2 60.6 79.4 60.6 77.5ZM47.6 29.3C50 29.3 51.9 31.2 51.9 33.6C51.9 36 50 37.9 47.6 37.9C45.2 37.9 43.3 36 43.3 33.6C43.3 31.3 45.2 29.3 47.6 29.3ZM20.6 61.5C17.9 61.5 16.3 58.6 17.7 56.3L32.2 32.9C33.6 30.6 36.9 30.8 38.1 33.1L52.5 61.5H20.6ZM54.7 61.5L47.6 48L55 38C57 35.3 61 35.4 62.9 38.2L73.6 54.1C75.8 57.3 73.5 61.7 69.6 61.7H55.6H54.7V61.5ZM77.6 73.5C78.8 74.7 78.8 76.7 77.6 78C76.4 79.2 74.3 79.2 73.1 78C72.5 77.4 72.2 76.6 72.2 75.8C72.2 75 72.5 74.2 73.1 73.6C73.7 73 74.5 72.7 75.3 72.7C76.1 72.7 77 72.9 77.6 73.5ZM77.1 62.9C69.1 62.9 62.5 69.4 62.5 77.5C62.5 85.6 69 92.1 77.1 92.1C85.2 92.1 91.7 85.6 91.7 77.5C91.7 69.4 85.2 62.9 77.1 62.9ZM84.6 84.9C84.3 85.2 83.9 85.3 83.5 85.3C83.1 85.3 82.7 85.2 82.4 84.9L78.5 81C77.6 81.6 76.5 81.9 75.3 81.9C73.7 81.9 72.1 81.3 70.9 80.1C69.7 78.9 69.1 77.4 69.1 75.7C69.1 74.1 69.7 72.5 70.9 71.3C73.3 68.9 77.2 68.9 79.6 71.3C81.6 73.3 81.9 76.4 80.5 78.8L84.4 82.7C84.7 83 84.8 83.4 84.8 83.8C84.8 84.2 84.9 84.7 84.6 84.9Z" fill="url(#paint0_linear_3_2)"/>
<defs>
<linearGradient id="paint0_linear_3_2" x1="91.7" y1="91.7" x2="8.29999" y2="8.29999" gradientUnits="userSpaceOnUse">
<stop stop-color="#00FFFF"/>
<stop offset="1" stop-color="#FF00FF"/>
</linearGradient>
</defs>
</svg>
