<svg width="100" height="100" viewBox="0 0 100 100" fill="none" xmlns="http://www.w3.org/2000/svg">
<path d="M76.3 61.9C67.4 61.9 60.2 69.1 60.2 78C60.2 86.9 67.4 94 76.3 94C85.2 94 92.4 86.8 92.4 77.9C92.4 69 85.2 61.9 76.3 61.9ZM76.3 91C69.1 91 63.2 85.1 63.2 77.9C63.2 70.7 69.1 64.8 76.3 64.8C83.5 64.8 89.4 70.7 89.4 77.9C89.4 85.1 83.5 91 76.3 91ZM29.1 81H57V84H29.1C17.3 84 7.6 74.3 7.6 62.5V27.5C7.6 15.6 17.3 6 29.1 6H64.1C76 6 85.6 15.6 85.6 27.5V59.8H82.6V27.5C82.6 17.3 74.3 9 64.1 9H29.1C18.9 9 10.6 17.3 10.6 27.5V62.5C10.6 72.7 18.9 81 29.1 81ZM55.5 61.1L48.4 47.6L55.8 37.6C57.8 34.9 61.8 35 63.7 37.8L74.4 53.7C76.6 56.9 74.3 61.3 70.4 61.3H56.4H55.5V61.1ZM38.9 32.7L53.3 61.1H21.4C18.7 61.1 17.1 58.2 18.5 55.9L33 32.5C34.3 30.2 37.7 30.4 38.9 32.7ZM48.4 37.5C46 37.5 44.1 35.6 44.1 33.2C44.1 30.8 46 28.9 48.4 28.9C50.8 28.9 52.7 30.8 52.7 33.2C52.7 35.6 50.8 37.5 48.4 37.5ZM79.8 79.4C81.2 77 80.9 73.9 78.9 71.9C76.5 69.5 72.6 69.5 70.2 71.9C67.8 74.3 67.8 78.2 70.2 80.6C71.4 81.8 72.9 82.4 74.6 82.4C75.7 82.4 76.8 82.1 77.8 81.5L81.7 85.4C82 85.7 82.4 85.8 82.8 85.8C83.2 85.8 83.6 85.7 83.9 85.4C84.2 85.1 84.3 84.7 84.3 84.3C84.3 83.9 84.2 83.5 83.9 83.2L79.8 79.4ZM72.3 78.5C71.1 77.3 71.1 75.3 72.3 74C72.9 73.4 73.7 73.1 74.5 73.1C75.3 73.1 76.1 73.4 76.7 74C77.9 75.2 77.9 77.2 76.7 78.5C75.6 79.6 73.5 79.6 72.3 78.5Z" fill="url(#paint0_linear_3_4)"/>
<defs>
<linearGradient id="paint0_linear_3_4" x1="92.4" y1="91.9777" x2="7.6" y2="8.02233" gradientUnits="userSpaceOnUse">
<stop stop-color="#FF00FF"/>
<stop offset="1" stop-color="#00FFFF"/>
</linearGradient>
</defs>
</svg>
